:SAMPLES-PER-SECOND 30
:FRAME-RANGE 1-2045
:FULLY-SPECIFIED
:DEGREES
895
root  -31.6875 37.7262 -19.0577 -178.526 -12.6168 179.284
RightUpLeg  -4.27993 7.01612 8.87822
RightLeg  32.849 -3.14666 -2.43294
RightFoot  -23.9813 -0.76117 -5.4022
RightToes  -5.28216e-011 1.2921e-014 -6.02303e-014
Spine  1.02408 -2.04721 -1.22175
Spine1  7.51467 -1.87535 -1.73251
HEad  3.00172 -34.4207 10.1019
LeftShoulder1  1.15402 -1.84467 -15.8824
LeftArm  1.35894 12.7375 -34.6981
LeftForeArm  -4.78031 -49.6808 -13.6006
LeftHand  0.211898 1.66266 -7.00002
RightShoulder  1.58198 1.85801 24.5224
RightArm  11.9821 6.51255 60.8792
RightForeArm  -0.0229302 33.5388 7.46501
RightHand  0.014352 -6.98658 -3.51275
LeftUpLeg  -27.5084 -0.0667601 6.48555
LeftLeg  5.70312 -18.8048 1.32749
LeftFoot  -6.96478 0.563432 -13.6048
LeftToes  9.43379e-011 5.24309e-011 -4.66411e-011
896
root  -32.2081 37.5437 -19.9887 -178.691 -10.2059 179.159
RightUpLeg  -3.14515 7.83146 8.21237
RightLeg  34.8078 -1.94505 -1.70717
RightFoot  -25.275 -0.75659 -4.78727
RightToes  -5.28216e-011 1.2921e-014 -6.02303e-014
Spine  0.74824 -1.91433 -1.7729
Spine1  8.12276 -1.66264 -2.03602
HEad  2.3 -37.4113 10.9585
LeftShoulder1  1.1463 -1.84362 -15.7237
LeftArm  1.29833 11.3259 -35.2656
LeftForeArm  -4.09861 -49.3243 -13.3781
LeftHand  0.214683 1.59262 -7.03867
RightShoulder  1.60576 1.94535 24.466
RightArm  11.6351 6.47276 60.5273
RightForeArm  -0.612717 32.9725 7.34457
RightHand  -0.00871406 -6.75473 -2.18412
LeftUpLeg  -27.9871 -4.92735 7.77718
LeftLeg  9.73697 -17.168 0.952732
LeftFoot  -3.72023 1.06429 -15.566
LeftToes  9.43379e-011 5.24309e-011 -4.66411e-011
897
root  -32.7133 37.3989 -20.9811 -178.675 -7.65007 179.016
RightUpLeg  -2.16458 8.78247 7.36371
RightLeg  36.6655 -0.472778 -0.639514
RightFoot  -26.0193 -0.760357 -4.53194
RightToes  -5.28216e-011 1.2921e-014 -6.02303e-014
Spine  0.553057 -1.80432 -2.53779
Spine1  8.08451 -1.55218 -2.08181
HEad  1.77045 -40.5966 12.1462
LeftShoulder1  1.11427 -1.6847 -15.7964
LeftArm  1.80778 10.0305 -35.392
LeftForeArm  -3.58561 -48.832 -13.1064
LeftHand  0.215541 1.46946 -6.95672
RightShoulder  1.63014 1.97379 24.7808
RightArm  11.8123 6.2042 60.0527
RightForeArm  -1.58943 32.0962 7.16495
RightHand  -0.0197852 -6.61342 -1.40235
LeftUpLeg  -28.3928 -10.7647 10.1968
LeftLeg  13.1324 -14.5127 -0.4826
LeftFoot  0.209458 1.85783 -18.2493
LeftToes  9.43379e-011 5.24309e-011 -4.66411e-011
898
root  -33.1831 37.2696 -21.9815 -178.35 -5.71475 178.361
RightUpLeg  -2.25881 8.81051 5.64237
RightLeg  39.8335 1.44021 1.01072
RightFoot  -26.0639 -0.669095 -3.81032
RightToes  -5.28216e-011 1.2921e-014 -6.02303e-014
Spine  0.233836 -1.97601 -3.84538
Spine1  8.11141 -1.75437 -2.01226
HEad  0.662194 -43.1491 14.136
LeftShoulder1  1.14233 -1.8521 -15.5997
LeftArm  2.72505 8.78302 -35.4613
LeftForeArm  -3.82466 -47.8914 -12.6876
LeftHand  0.216978 1.5363 -6.99991
RightShoulder  1.61919 1.88288 25.125
RightArm  11.6368 5.8829 60.1613
RightForeArm  -2.52149 30.8492 6.89109
RightHand  -0.0212899 -6.5519 -1.30503
LeftUpLeg  -29.7038 -15.6607 12.1517
LeftLeg  17.1018 -7.88703 -1.99349
LeftFoot  2.37853 2.12862 -17.6942
LeftToes  9.43379e-011 5.24309e-011 -4.66411e-011
899
root  -33.5925 37.2689 -22.8802 -177.932 -4.0729 177.678
RightUpLeg  -3.35842 7.40695 3.21288
RightLeg  43.7345 4.27222 4.07079
RightFoot  -24.3369 -0.524049 -3.15327
RightToes  -5.28216e-011 1.2921e-014 -6.02303e-014
Spine  0.50404 -2.18071 -5.00639
Spine1  7.8582 -1.95748 -2.20279
HEad  -1.05209 -44.6844 16.2265
LeftShoulder1  1.28754 -2.4822 -15.7091
LeftArm  3.74644 7.51385 -35.2542
LeftForeArm  -4.54286 -46.5925 -12.1632
LeftHand  0.217326 1.59376 -7.02605
RightShoulder  1.57612 1.72996 25.216
RightArm  10.8456 5.20851 60.2757
RightForeArm  -2.48368 29.9906 6.67104
RightHand  -0.0227135 -6.37982 -1.08364
LeftUpLeg  -30.2471 -14.4407 10.5383
LeftLeg  21.2256 -7.59153 -2.91326
LeftFoot  1.66532 1.47557 -12.9894
LeftToes  9.43379e-011 5.24309e-011 -4.66411e-011
900
root  -33.999 37.3597 -23.7096 -177.525 -1.59053 177.314
RightUpLeg  -5.31542 5.1878 0.161601
RightLeg  48.2551 7.97054 9.14425
RightFoot  -20.8871 -0.277429 -1.63014
RightToes  -5.28216e-011 1.2921e-014 -6.02303e-014
Spine  0.998239 -2.04536 -5.34547
Spine1  7.3729 -1.74555 -2.75744
HEad  -2.41627 -44.8809 17.3417
LeftShoulder1  1.35065 -2.69246 -16.0074
LeftArm  5.01509 5.8911 -35.271
LeftForeArm  -5.55808 -44.9717 -11.5556
LeftHand  0.21619 1.62878 -7.06376
RightShoulder  1.60648 1.89669 24.7808
RightArm  10.4612 4.4423 60.188
RightForeArm  -2.79611 29.5337 6.57333
RightHand  -0.0309261 -6.39983 -0.415295
LeftUpLeg  -30.0345 -13.8215 9.50446
LeftLeg  23.9308 -5.85782 -2.50251
LeftFoot  -0.138109 1.12511 -11.4352
LeftToes  9.43379e-011 5.24309e-011 -4.66411e-011
901
root  -34.3667 37.4315 -24.4627 -177.071 1.48707 177.385
RightUpLeg  -8.06303 3.02383 -2.81896
RightLeg  53.328 11.2224 15.3684
RightFoot  -16.7675 -0.0135013 2.11079
RightToes  -5.28216e-011 1.2921e-014 -6.02303e-014
Spine  1.48975 -1.86077 -5.32439
Spine1  6.86756 -1.53745 -3.21097
HEad  -3.00377 -43.9065 17.4655
LeftShoulder1  1.31236 -2.44844 -16.3222
LeftArm  5.78267 4.83405 -35.205
LeftForeArm  -6.00816 -44.2051 -11.2798
LeftHand  0.203158 1.81991 -7.05724
RightShoulder  1.69714 2.31262 24.0857
RightArm  11.2482 4.32497 60.075
RightForeArm  -3.7366 28.8833 6.46191
RightHand  -0.0374253 -6.29084 0.341554
LeftUpLeg  -29.7437 -12.2495 8.92814
LeftLeg  26.3692 -4.50514 -2.08181
LeftFoot  -2.1081 0.853683 -10.3952
LeftToes  9.43379e-011 5.24309e-011 -4.66411e-011
902
root  -34.6323 37.4674 -25.1358 -176.583 4.7156 177.272
RightUpLeg  -11.1335 1.17023 -5.81336
RightLeg  58.0048 12.8432 20.6902
RightFoot  -14.1961 0.166393 10.5276
RightToes  -5.28216e-011 1.2921e-014 -6.02303e-014
Spine  1.67513 -1.79707 -6.01385
Spine1  6.96069 -1.50112 -3.45996
HEad  -3.3935 -42.3262 17.6241
LeftShoulder1  1.31318 -2.53683 -15.9613
LeftArm  5.52707 4.90732 -35.3766
LeftForeArm  -5.73658 -44.0939 -11.2193
LeftHand  0.192416 1.94504 -6.9769
RightShoulder  1.7555 2.53344 23.9418
RightArm  12.6279 5.22565 60.0263
RightForeArm  -4.65501 28.1098 6.32088
RightHand  -0.0446413 -6.22151 1.288
LeftUpLeg  -29.4291 -10.2957 8.25288
LeftLeg  28.46 -3.4184 -1.65156
LeftFoot  -3.95334 0.657274 -9.79704
LeftToes  9.43379e-011 5.24309e-011 -4.66411e-011
903
root  -34.8304 37.4752 -25.6911 -176.107 7.94901 177.179
RightUpLeg  -14.2741 -0.686181 -8.16729
RightLeg  60.9021 11.9041 21.5459
RightFoot  -14.4171 0.340009 16.2299
RightToes  -5.28216e-011 1.2921e-014 -6.02303e-014
Spine  2.50718 -1.68002 -6.76475
Spine1  6.34531 -1.49 -3.59172
HEad  -3.28968 -41.0135 17.4148
LeftShoulder1  1.33623 -2.64087 -15.9558
LeftArm  5.86018 4.77047 -35.0131
LeftForeArm  -6.27524 -43.756 -11.1222
LeftHand  0.186592 1.95254 -6.91982
RightShoulder  1.75256 2.51058 24.0127
RightArm  13.7217 6.10901 60.1654
RightForeArm  -4.99484 27.4623 6.18259
RightHand  -0.0459285 -6.13761 1.64702
LeftUpLeg  -29.1389 -8.20795 7.71329
LeftLeg  30.147 -2.5281 -1.22114
LeftFoot  -5.60163 0.510307 -9.49543
LeftToes  9.43379e-011 5.24309e-011 -4.66411e-011
904
root  -35.0034 37.615 -26.2215 -175.482 11.0696 177.552
RightUpLeg  -17.039 -2.67654 -9.39736
RightLeg  60.7282 9.17525 16.7429
RightFoot  -16.7382 0.550552 14.0374
RightToes  -5.28216e-011 1.2921e-014 -6.02303e-014
Spine  3.05741 -1.62261 -6.66696
Spine1  5.86853 -1.44185 -3.58143
HEad  -3.13022 -39.5541 17.1931
LeftShoulder1  1.36915 -2.76346 -16.0529
LeftArm  5.91343 4.47232 -34.7432
LeftForeArm  -7.03769 -43.1604 -10.9425
LeftHand  0.181886 1.92145 -6.80617
RightShoulder  1.77868 2.58126 24.1017
RightArm  13.8334 6.81816 60.4183
RightForeArm  -4.42181 27.0638 6.05859
RightHand  -0.0430281 -6.15118 2.11874
LeftUpLeg  -28.3295 -6.80464 7.76997
LeftLeg  30.4915 -1.20681 -0.39844
LeftFoot  -6.72045 0.429994 -9.64449
LeftToes  9.43379e-011 5.24309e-011 -4.66411e-011
905
root  -35.1416 37.8471 -26.6941 -174.717 14.2075 178.202
RightUpLeg  -19.668 -3.70068 -10.0003
RightLeg  57.4268 6.12236 9.80922
RightFoot  -17.5375 0.474828 10.947
RightToes  -5.28216e-011 1.2921e-014 -6.02303e-014
Spine  3.8359 -1.56963 -6.16082
Spine1  5.06837 -1.36578 -3.36657
HEad  -2.32516 -37.7509 16.512
LeftShoulder1  1.40341 -2.85461 -16.2958
LeftArm  5.30089 4.28036 -34.6644
LeftForeArm  -7.2676 -42.5379 -10.7244
LeftHand  0.186815 2.10051 -7.1467
RightShoulder  1.8111 2.67088 24.1992
RightArm  14.2593 7.57976 60.7218
RightForeArm  -4.28658 26.682 5.96174
RightHand  -0.0418893 -6.23187 1.52397
LeftUpLeg  -27.2584 -5.85692 8.19626
LeftLeg  29.9976 0.544028 0.708539
LeftFoot  -7.20132 0.395561 -9.73512
LeftToes  9.43379e-011 5.24309e-011 -4.66411e-011
